<svg width="1080" height="1080" viewBox="0 0 1080 1080" fill="none" xmlns="http://www.w3.org/2000/svg">
<path d="M960.404 429.821C907.435 221.553 724.408 71.2135 509.573 65.1835C395.997 61.9956 276.483 99.66 189.468 231.461C33.9188 467.07 199.027 629.883 314.135 707.249C369.747 744.701 419.856 789.734 463.011 841.044C540.763 933.3 690.341 1047.94 868.481 868.316C997.597 738.124 995.688 568.548 960.404 429.821Z" fill="#F2F2F2"/>
<path d="M781.914 916.906C781.914 951.203 632.25 1015 443.726 1015C255.202 1015 100 955.158 100 920.861C100 886.564 255.202 890.8 443.726 890.8C632.25 890.8 781.914 882.609 781.914 916.906Z" fill="#3F3D56"/>
<path opacity="0.1" d="M781.914 916.906C781.914 951.203 632.25 1015 443.726 1015C255.202 1015 100 955.158 100 920.861C100 886.564 255.202 890.8 443.726 890.8C632.25 890.8 781.914 882.609 781.914 916.906Z" fill="black"/>
<path d="M441.353 982.566C629.876 982.566 782.705 954.762 782.705 920.466C782.705 886.169 629.876 858.365 441.353 858.365C252.829 858.365 100 886.169 100 920.466C100 954.762 252.829 982.566 441.353 982.566Z" fill="#3F3D56"/>
<path d="M570.583 709.265V875.348L598.364 920.623L600.478 924.066H710.093L712.307 709.265H570.583Z" fill="#2F2E41"/>
<path opacity="0.1" d="M570.583 709.265V875.348L598.364 920.623L600.069 709.265H570.583Z" fill="black"/>
<path d="M305.957 704.836V870.919L278.176 916.194L276.062 919.637H166.446L164.232 704.836H305.957Z" fill="#2F2E41"/>
<path opacity="0.1" d="M305.957 704.836V870.919L278.177 916.194L276.471 704.836H305.957Z" fill="black"/>
<path d="M745.524 701.514V711.479H149.838V697.086L205.199 668.298H696.806L745.524 701.514Z" fill="#2F2E41"/>
<path opacity="0.1" d="M745.524 701.514V711.479H149.838V697.086L745.524 701.514Z" fill="black"/>
<path opacity="0.1" d="M235.094 751.34H208.521L197.449 743.589H247.274L235.094 751.34Z" fill="black"/>
<path opacity="0.1" d="M235.094 783.449H208.521L197.449 775.698H247.274L235.094 783.449Z" fill="black"/>
<path opacity="0.1" d="M235.094 828.845H208.521L197.449 821.094H247.274L235.094 828.845Z" fill="black"/>
<path opacity="0.1" d="M235.094 874.241H208.521L197.449 866.49H247.274L235.094 874.241Z" fill="black"/>
<path opacity="0.1" d="M641.445 755.768H668.018L679.09 748.018H629.266L641.445 755.768Z" fill="black"/>
<path opacity="0.1" d="M641.445 787.877H668.018L679.09 780.127H629.266L641.445 787.877Z" fill="black"/>
<path opacity="0.1" d="M641.445 833.274H668.018L679.09 825.523H629.266L641.445 833.274Z" fill="black"/>
<path opacity="0.1" d="M641.445 878.67H668.018L679.09 870.919H629.266L641.445 878.67Z" fill="black"/>
<path d="M521.264 640.59L517.571 664.17C517.571 664.17 499.389 673.83 512.173 674.114C524.958 674.398 585.187 674.114 585.187 674.114C585.187 674.114 596.835 674.114 578.368 663.886L574.675 639.169L521.264 640.59Z" fill="#3F3D56"/>
<path opacity="0.1" d="M509.601 673.858C512.084 671.85 514.753 670.084 517.571 668.582L521.264 645.002L574.675 645.052L578.368 668.298C581.403 669.864 584.264 671.747 586.903 673.914C589.275 673.373 591.866 671.362 578.368 663.886L574.675 639.169L521.264 640.59L517.571 664.17C517.571 664.17 502.292 672.288 509.601 673.858Z" fill="black"/>
<path d="M659.541 476.239H435.83C431.158 476.239 427.37 480.026 427.37 484.699V635.397C427.37 640.069 431.158 643.857 435.83 643.857H659.541C664.214 643.857 668.002 640.069 668.002 635.397V484.699C668.002 480.026 664.214 476.239 659.541 476.239Z" fill="#3F3D56"/>
<path d="M659.905 485.188H435.466V610.76H659.905V485.188Z" fill="#F2F2F2"/>
<path d="M547.686 482.631C548.47 482.631 549.106 481.995 549.106 481.21C549.106 480.426 548.47 479.79 547.686 479.79C546.901 479.79 546.265 480.426 546.265 481.21C546.265 481.995 546.901 482.631 547.686 482.631Z" fill="#F2F2F2"/>
<path d="M668.002 620.703V635.397C668.002 636.508 667.783 637.608 667.358 638.634C666.933 639.661 666.31 640.594 665.524 641.379C664.738 642.165 663.806 642.788 662.779 643.213C661.752 643.638 660.652 643.857 659.541 643.857H435.83C434.719 643.857 433.619 643.638 432.592 643.213C431.566 642.788 430.633 642.165 429.847 641.379C429.062 640.594 428.438 639.661 428.013 638.634C427.588 637.608 427.369 636.508 427.37 635.397V620.703H668.002Z" fill="#3F3D56"/>
<path d="M547.686 637.749C550.667 637.749 553.084 635.332 553.084 632.351C553.084 629.37 550.667 626.953 547.686 626.953C544.705 626.953 542.288 629.37 542.288 632.351C542.288 635.332 544.705 637.749 547.686 637.749Z" fill="#F2F2F2"/>
<path d="M539.274 689.455V692.296H386.428V690.023L386.639 689.455L390.406 679.228H536.149L539.274 689.455Z" fill="#3F3D56"/>
<path d="M598.094 686.674C597.816 687.864 596.764 689.12 594.389 690.307C585.866 694.569 568.536 689.171 568.536 689.171C568.536 689.171 555.184 686.898 555.184 680.932C555.559 680.675 555.949 680.443 556.354 680.236C559.937 678.34 571.818 673.662 592.885 680.434C594.437 680.921 595.823 681.83 596.889 683.058C597.362 683.523 597.717 684.093 597.926 684.721C598.136 685.35 598.193 686.019 598.094 686.674V686.674Z" fill="#3F3D56"/>
<path opacity="0.1" d="M598.094 686.674C587.662 690.671 578.363 690.969 568.82 684.341C564.008 681 559.635 680.173 556.354 680.236C559.937 678.34 571.818 673.662 592.885 680.434C594.437 680.921 595.823 681.83 596.889 683.058C597.361 683.523 597.717 684.093 597.926 684.721C598.136 685.349 598.193 686.019 598.094 686.674V686.674Z" fill="black"/>
<path d="M585.014 684.341C587.054 684.341 588.707 683.832 588.707 683.205C588.707 682.577 587.054 682.068 585.014 682.068C582.974 682.068 581.321 682.577 581.321 683.205C581.321 683.832 582.974 684.341 585.014 684.341Z" fill="#F2F2F2"/>
<path opacity="0.1" d="M539.274 689.455V692.296H386.428V690.023L386.639 689.455H539.274Z" fill="black"/>
<path d="M626.619 544.493C625.413 543.287 609.937 523.791 607.325 520.576C604.511 517.36 603.305 517.963 601.496 518.164C599.687 518.365 580.191 521.781 577.981 521.982C575.77 522.384 574.363 523.188 575.77 525.198C576.976 527.007 589.839 545.096 592.653 549.316L541.401 561.577L500.802 493.442C499.194 491.031 498.792 490.227 495.174 490.428C491.557 490.629 463.218 493.04 461.208 493.04C459.198 493.241 456.987 494.045 458.997 498.869C461.007 503.693 493.165 572.832 493.969 574.842C494.772 576.852 497.184 580.067 502.611 578.861C508.239 577.454 527.533 572.43 538.185 569.616C543.813 579.665 555.068 600.166 557.279 603.181C560.093 607.2 562.103 606.396 566.323 605.191C569.74 604.186 618.982 586.499 621.193 585.494C623.403 584.489 624.81 583.886 623.202 581.675C621.997 580.067 609.133 562.582 602.3 553.537C606.923 552.331 623.604 547.91 625.413 547.307C627.423 546.704 627.825 545.699 626.619 544.493V544.493ZM533.563 563.586C532.96 563.787 504.219 570.621 502.812 571.023C501.204 571.425 501.204 571.224 501.204 570.621C500.802 570.018 467.036 500.075 466.433 499.271C466.031 498.467 466.031 497.663 466.433 497.663C466.835 497.663 493.567 495.251 494.37 495.251C495.375 495.251 495.174 495.452 495.576 496.055C495.576 496.055 533.161 560.974 533.764 561.979C534.568 562.984 534.166 563.385 533.563 563.586V563.586ZM614.359 578.66C614.761 579.464 615.364 579.866 613.756 580.268C612.349 580.871 565.318 596.749 564.314 597.151C563.309 597.553 562.706 597.754 561.5 595.945C560.294 594.136 545.019 567.807 545.019 567.807L595.064 554.743C596.27 554.341 596.672 554.14 597.476 555.346C598.28 556.753 613.957 578.057 614.359 578.66V578.66ZM617.575 543.287C616.369 543.488 598.079 548.111 598.079 548.111L583.005 527.61C582.603 527.007 582.201 526.404 583.206 526.203C584.211 526.002 601.295 522.987 602.099 522.786C602.903 522.585 603.506 522.384 604.511 523.791C605.516 524.997 618.379 541.478 618.982 542.081C619.585 542.684 618.781 543.086 617.575 543.287V543.287Z" fill="#FB503B"/>
<path d="M412.192 514.582C428.902 514.582 442.449 501.036 442.449 484.326C442.449 467.615 428.902 454.069 412.192 454.069C395.482 454.069 381.936 467.615 381.936 484.326C381.936 501.036 395.482 514.582 412.192 514.582Z" fill="#FFB9B9"/>
<path d="M389.898 499.454V547.227H439.264C439.264 547.227 432.894 507.416 436.079 495.473L389.898 499.454Z" fill="#FFB9B9"/>
<path d="M487.833 563.947C487.833 563.947 440.856 540.857 440.856 539.265C440.856 537.672 436.079 527.321 432.894 527.321C429.709 527.321 402.638 518.563 387.51 531.303L385.917 541.653L327.793 579.872L343.718 637.996C343.718 637.996 354.068 649.143 350.884 657.105C347.699 665.067 353.272 705.674 353.272 705.674L478.279 701.693V647.55C478.279 647.55 482.26 634.811 484.648 630.83C487.037 626.849 484.648 614.905 484.648 614.905L503.758 591.019C503.758 591.019 501.369 568.725 487.833 563.947Z" fill="#D0CDE1"/>
<path opacity="0.1" d="M329.784 599.379L333.367 579.872C333.367 579.872 312.665 669.845 315.054 680.195C317.442 690.546 334.959 706.471 337.348 707.267C339.736 708.063 362.031 638.792 362.031 638.792L329.784 599.379Z" fill="black"/>
<path d="M341.329 577.483L327.793 579.872C327.793 579.872 307.092 669.845 309.48 680.195C311.869 690.546 329.386 706.471 331.774 707.267C334.163 708.063 356.457 638.792 356.457 638.792L341.329 577.483Z" fill="#D0CDE1"/>
<path opacity="0.1" d="M492.212 604.157L498.98 591.019C498.98 591.019 508.535 680.992 502.165 689.75C495.795 698.509 470.599 701.786 470.599 701.786L470.316 636.403L492.212 604.157Z" fill="black"/>
<path d="M493.407 580.668L503.758 591.019C503.758 591.019 513.312 680.992 506.942 689.75C500.573 698.509 475.376 701.786 475.376 701.786L475.094 636.403L493.407 580.668Z" fill="#D0CDE1"/>
<path d="M338.94 717.618C338.94 717.618 315.85 708.859 311.869 725.58C307.888 742.3 321.423 817.145 321.423 817.145C321.423 817.145 330.182 873.677 335.755 875.269C341.329 876.862 366.012 877.658 369.993 870.492C373.974 863.326 358.05 790.074 358.05 790.074L450.411 788.481C450.411 788.481 444.837 852.179 441.653 857.752C438.468 863.326 438.468 882.435 441.653 882.435C444.837 882.435 479.871 880.843 482.26 876.065C484.648 871.288 498.184 763.798 498.184 763.798C498.184 763.798 509.331 726.376 496.592 728.765C483.852 731.153 338.94 717.618 338.94 717.618Z" fill="#3F3D56"/>
<path d="M475.094 872.88C475.094 872.88 483.056 867.307 487.037 872.88C491.018 878.454 492.611 884.824 475.094 894.378C457.577 903.933 444.041 901.544 444.041 899.952V876.861L475.094 872.88Z" fill="#2F2E41"/>
<path d="M337.348 870.492C337.348 870.492 329.386 864.918 325.405 870.492C321.423 876.065 319.831 882.435 337.348 891.99C354.865 901.544 368.4 899.156 368.4 897.563V874.473L337.348 870.492Z" fill="#2F2E41"/>
<path d="M412.389 446.175C409.375 446.071 406.366 446.499 403.502 447.442C401.281 448.335 399.159 449.457 397.171 450.791L383.813 459.098C382.679 459.589 381.716 460.404 381.045 461.442C380.374 462.48 380.025 463.693 380.043 464.928L378.374 477.429C377.952 480.584 377.564 483.957 378.976 486.809C380.155 489.19 382.403 490.819 384.251 492.727C387.209 495.793 389.2 499.661 389.976 503.85C390.931 509.07 390.32 515.355 394.45 518.685C396.686 520.489 399.735 520.83 402.603 520.998C410.445 521.456 418.314 521.153 426.098 520.093C427.336 520.001 428.543 519.662 429.648 519.099C431.053 518.268 431.937 516.802 432.763 515.395C435.746 510.317 438.82 504.914 438.788 499.025C438.772 496.111 438.026 492.982 439.425 490.426C440.164 489.339 440.967 488.297 441.828 487.305C443.56 484.871 443.898 481.744 444.18 478.769C445.081 469.269 444.139 462.04 437.137 455.348C430.602 449.101 421.302 446.233 412.389 446.175Z" fill="#2F2E41"/>
<path d="M338.066 811.683L311.493 946.764H324.779L350.246 813.898L338.066 811.683Z" fill="#2F2E41"/>
<path d="M423.322 822.755L439.931 977.767H451.003L441.038 818.326L423.322 822.755Z" fill="#2F2E41"/>
<path d="M468.719 818.326L491.97 921.298H503.042L480.898 816.112L468.719 818.326Z" fill="#2F2E41"/>
<path d="M380.141 818.326L376.819 900.261H385.677L392.32 818.326H380.141Z" fill="#2F2E41"/>
<path d="M319.243 797.289C319.243 797.289 301.528 678.816 351.353 675.494C401.178 672.173 472.04 675.494 472.04 675.494C472.04 675.494 513.007 672.173 500.828 797.289C500.828 797.289 511.9 833.827 412.25 830.506C312.6 827.184 319.243 797.289 319.243 797.289Z" fill="#00B0FF"/>
<path d="M773.212 845.669C773.212 866.329 760.93 873.542 745.78 873.542C730.63 873.542 718.348 866.329 718.348 845.669C718.348 825.01 745.78 798.728 745.78 798.728C745.78 798.728 773.212 825.01 773.212 845.669Z" fill="#00B0FF"/>
<path d="M745.062 853.092L756.754 831.702L745.106 850.379L745.232 842.605L753.29 827.129L745.265 840.548L745.492 826.565L754.122 814.245L745.528 824.367L745.67 798.728L744.817 831.215L736.079 817.84L744.711 833.956L743.894 849.572L743.869 849.158L733.755 835.027L743.838 850.622L743.736 852.575L743.718 852.605L743.727 852.765L741.653 873.604H744.424L744.756 871.921L754.815 856.362L744.78 870.382L745.062 853.092Z" fill="#3F3D56"/>
<path d="M763.3 918.357H730.596L722.144 870.587H769.914L763.3 918.357Z" fill="#2F2E41"/>
<path d="M282.74 595.398H214.707V675.161H282.74V595.398Z" fill="#3F3D56"/>
<path d="M272.183 607.775H225.264V662.784H272.183V607.775Z" fill="#F2F2F2"/>
<path d="M315 361H163V475.815H315V361Z" fill="url(#paint0_linear_207_2)"/>
<path d="M311.738 364.262H166.262V472.554H311.738V364.262Z" fill="white"/>
<path d="M306.519 369.481H171.481V467.335H306.519V369.481Z" fill="#00B0FF"/>
<path d="M198.286 418.188C198.266 424.379 204.293 430.177 213.813 433.464C211.879 443.039 213.417 450.766 218.625 453.791C223.977 456.901 231.973 454.785 239.577 448.18C246.949 454.565 254.411 457.092 259.633 454.091C265.001 451.006 266.656 442.765 264.732 432.88C274.668 429.629 280.236 424.719 280.256 418.447C280.275 412.4 274.236 407.15 264.844 403.884C266.982 393.603 265.222 386.063 259.799 382.912C254.57 379.875 247.004 382.484 239.484 388.987C231.703 382.035 224.227 379.896 218.789 383.021C213.546 386.034 212.028 393.891 213.907 403.655C204.688 406.836 198.305 412.166 198.286 418.188Z" fill="white"/>
<path d="M262.843 407.092C262.069 406.823 261.289 406.575 260.502 406.346C260.634 405.816 260.756 405.283 260.869 404.749C262.67 396.143 261.532 389.203 257.579 386.907C253.788 384.704 247.57 386.968 241.28 392.407C240.66 392.944 240.054 393.497 239.462 394.065C239.068 393.685 238.667 393.312 238.26 392.947C231.704 387.089 225.123 384.609 221.159 386.887C217.358 389.071 216.214 395.589 217.785 403.755C217.941 404.563 218.118 405.368 218.315 406.167C217.382 406.429 216.481 406.709 215.618 407.006C207.903 409.669 202.967 413.865 202.954 418.233C202.939 422.744 208.209 427.286 216.228 430.055C216.878 430.279 217.534 430.486 218.194 430.677C217.977 431.537 217.784 432.403 217.614 433.274C216.066 441.288 217.235 447.659 221.012 449.853C224.914 452.119 231.48 449.824 237.885 444.261C238.391 443.821 238.899 443.356 239.409 442.865C240.046 443.484 240.7 444.084 241.371 444.667C247.541 450.01 253.644 452.179 257.432 450.003C261.344 447.755 262.634 440.919 261.013 432.592C260.889 431.956 260.746 431.307 260.583 430.644C261.044 430.51 261.495 430.37 261.938 430.226C270.292 427.488 275.736 423.035 275.75 418.463C275.764 414.079 270.697 409.823 262.843 407.092H262.843Z" fill="#53C1DE"/>
<path d="M260.969 427.271C260.571 427.402 260.162 427.528 259.745 427.65C258.737 424.492 257.515 421.407 256.088 418.416C257.48 415.474 258.673 412.441 259.659 409.339C260.403 409.558 261.126 409.787 261.821 410.029C268.551 412.369 272.649 415.811 272.64 418.453C272.632 421.267 268.182 424.906 260.969 427.271H260.969ZM257.96 433.186C258.677 436.868 258.771 440.196 258.28 442.795C257.839 445.131 256.962 446.686 255.882 447.307C253.584 448.627 248.683 446.886 243.407 442.316C242.802 441.792 242.193 441.234 241.581 440.641C243.795 438.206 245.842 435.624 247.708 432.912C251.026 432.643 254.322 432.146 257.572 431.424C257.718 432.024 257.848 432.611 257.96 433.186V433.186ZM227.681 446.988C225.437 447.773 223.652 447.789 222.575 447.164C220.283 445.833 219.344 440.717 220.668 433.863C220.825 433.054 221.005 432.248 221.207 431.448C224.439 432.153 227.715 432.638 231.013 432.899C232.916 435.613 234.995 438.199 237.237 440.64C236.784 441.075 236.32 441.499 235.846 441.912C233.014 444.372 230.178 446.115 227.681 446.988H227.681ZM217.243 427.116C213.697 425.891 210.771 424.305 208.767 422.578C206.966 421.026 206.059 419.488 206.063 418.242C206.072 415.592 210.034 412.223 216.633 409.946C217.461 409.661 218.297 409.401 219.141 409.166C220.11 412.308 221.285 415.383 222.66 418.371C221.249 421.392 220.039 424.503 219.038 427.684C218.435 427.509 217.837 427.32 217.243 427.116ZM220.839 403.167C219.493 396.171 220.418 390.899 222.708 389.583C225.148 388.181 230.527 390.208 236.187 395.266C236.549 395.589 236.912 395.928 237.276 396.278C235.034 398.689 232.955 401.246 231.051 403.932C227.783 404.215 224.536 404.709 221.332 405.411C221.149 404.667 220.984 403.919 220.839 403.167V403.167ZM252.215 411.02C251.507 409.788 250.773 408.572 250.013 407.372C252.335 407.673 254.559 408.07 256.647 408.553C255.97 410.679 255.185 412.768 254.297 414.815C253.629 413.536 252.935 412.271 252.215 411.02ZM239.449 398.507C240.958 400.162 242.383 401.893 243.717 403.692C240.851 403.547 237.983 403.538 235.113 403.663C236.533 401.802 237.987 400.074 239.449 398.507ZM226.522 410.96C225.804 412.196 225.115 413.449 224.456 414.718C223.557 412.567 222.789 410.453 222.162 408.412C224.241 407.953 226.457 407.58 228.766 407.299C227.989 408.502 227.242 409.722 226.522 410.96ZM228.762 429.551C226.509 429.299 224.271 428.932 222.056 428.451C222.706 426.378 223.504 424.223 224.436 422.032C225.09 423.306 225.774 424.563 226.488 425.805C227.216 427.072 227.974 428.32 228.762 429.551V429.551ZM239.409 438.409C237.94 436.813 236.476 435.05 235.046 433.153C236.439 433.212 237.859 433.244 239.305 433.249C240.789 433.254 242.254 433.226 243.699 433.165C242.36 434.985 240.928 436.735 239.409 438.409V438.409ZM254.304 422.014C255.223 424.108 256.032 426.248 256.729 428.426C254.485 428.923 252.217 429.302 249.934 429.562C250.708 428.345 251.456 427.112 252.181 425.865C252.917 424.597 253.625 423.314 254.304 422.014V422.014ZM249.492 424.303C248.383 426.215 247.213 428.09 245.982 429.927C243.821 430.074 241.589 430.147 239.315 430.139C237.049 430.132 234.846 430.055 232.724 429.91C231.473 428.071 230.293 426.186 229.184 424.256C228.081 422.337 227.052 420.379 226.097 418.38C227.062 416.389 228.1 414.436 229.212 412.522V412.522C230.323 410.609 231.506 408.739 232.76 406.914C234.925 406.757 237.145 406.679 239.389 406.686C241.643 406.693 243.865 406.786 246.029 406.958C247.258 408.787 248.421 410.657 249.519 412.569C250.622 414.485 251.662 416.436 252.639 418.42C251.66 420.418 250.611 422.379 249.492 424.303H249.492ZM256.017 389.596C258.45 391.009 259.38 396.682 257.825 404.111C257.723 404.595 257.613 405.078 257.493 405.558C254.289 404.821 251.039 404.297 247.765 403.989C245.897 401.288 243.849 398.716 241.635 396.29C242.182 395.766 242.742 395.256 243.314 394.76C248.704 390.099 253.732 388.269 256.017 389.596V389.596Z" fill="white"/>
<path d="M239.372 411.847C240.658 411.851 241.914 412.236 242.98 412.954C244.047 413.672 244.877 414.69 245.366 415.879C245.854 417.068 245.978 418.376 245.724 419.636C245.469 420.896 244.846 422.053 243.934 422.959C243.022 423.865 241.862 424.481 240.6 424.728C239.338 424.974 238.031 424.841 236.845 424.346C235.659 423.85 234.646 423.013 233.935 421.942C233.225 420.871 232.847 419.613 232.851 418.327C232.854 417.473 233.025 416.629 233.354 415.841C233.683 415.053 234.164 414.338 234.77 413.737C235.375 413.135 236.093 412.658 236.883 412.334C237.673 412.01 238.519 411.845 239.372 411.847" fill="#53C1DE"/>
<path d="M283.731 240.906H324.282V244.136H287.448V268.449H322.085V271.679H287.448V298.372H324.704V301.602H283.731L283.731 240.906ZM327.915 240.906H332.223L351.316 267.599L370.831 240.906L397.375 207L353.766 270.404L376.238 301.602H371.76L351.316 273.209L330.787 301.602H326.394L349.035 270.404L327.915 240.906ZM377.843 244.136V240.906H424.054V244.136H402.765V301.602H399.048V244.136H377.843ZM233 240.906H237.646L301.719 337L275.241 301.602L236.886 245.496L236.717 301.602H233V240.906ZM423.68 297.397C423.412 297.401 423.149 297.325 422.925 297.179C422.7 297.033 422.524 296.823 422.419 296.576C422.314 296.329 422.284 296.057 422.334 295.793C422.384 295.53 422.511 295.287 422.699 295.096C422.887 294.905 423.127 294.774 423.389 294.72C423.651 294.666 423.924 294.692 424.171 294.794C424.419 294.896 424.631 295.069 424.78 295.292C424.929 295.514 425.009 295.777 425.009 296.045C425.013 296.222 424.982 296.398 424.918 296.563C424.853 296.728 424.755 296.878 424.631 297.004C424.507 297.131 424.359 297.23 424.195 297.298C424.032 297.365 423.856 297.399 423.68 297.397V297.397ZM427.332 293.84H429.321C429.348 294.92 430.135 295.646 431.292 295.646C432.585 295.646 433.317 294.865 433.317 293.405V284.15H435.343V293.414C435.343 296.045 433.824 297.56 431.31 297.56C428.951 297.56 427.332 296.09 427.332 293.84V293.84ZM437.992 293.722H439.999C440.17 294.965 441.382 295.754 443.127 295.754C444.754 295.754 445.948 294.911 445.948 293.749C445.948 292.751 445.188 292.152 443.461 291.744L441.78 291.336C439.42 290.782 438.344 289.639 438.344 287.716C438.344 285.384 440.243 283.832 443.091 283.832C445.74 283.832 447.675 285.384 447.792 287.589H445.821C445.631 286.382 444.582 285.629 443.064 285.629C441.463 285.629 440.397 286.4 440.397 287.58C440.397 288.514 441.084 289.049 442.783 289.449L444.221 289.802C446.897 290.429 448 291.517 448 293.486C448 295.99 446.065 297.56 442.973 297.56C440.08 297.56 438.136 296.063 437.992 293.722V293.722Z" fill="black"/>
<path d="M470 116H579V224.992H470V116Z" fill="#F7DF1E"/>
<path d="M498.666 207.083L507.007 202.034C508.618 204.887 510.08 207.302 513.593 207.302C516.96 207.302 519.08 205.985 519.08 200.866V166.037H529.323V201.007C529.323 211.614 523.11 216.443 514.032 216.443C505.839 216.443 501.084 212.198 498.67 207.078L498.666 207.083ZM534.886 205.981L543.223 201.151C545.418 204.738 548.272 207.364 553.321 207.364C557.566 207.364 560.271 205.244 560.271 202.315C560.271 198.803 557.492 197.561 552.816 195.51L550.256 194.413C542.867 191.269 537.963 187.318 537.963 178.976C537.963 171.293 543.815 165.441 552.96 165.441C559.471 165.441 564.143 167.711 567.519 173.633L559.546 178.757C557.79 175.609 555.889 174.366 552.96 174.366C549.962 174.366 548.057 176.267 548.057 178.757C548.057 181.83 549.958 183.072 554.348 184.969L556.908 186.067C565.605 189.795 570.518 193.601 570.518 202.162C570.518 211.382 563.274 216.431 553.536 216.431C544.01 216.431 537.88 211.875 534.898 205.968" fill="black"/>
<path d="M710.488 339.66L664.293 326.85L654 211.391H767.114L756.81 326.833L710.488 339.66Z" fill="#264DE4"/>
<path d="M747.988 319.487L756.793 220.837H710.565V329.841L747.988 319.487Z" fill="#2965F1"/>
<path d="M677.627 263.64L678.896 277.798H710.588V263.64H677.627ZM675.076 234.978L676.362 249.136H710.582V234.978H675.048H675.076ZM710.582 300.416H710.521L694.748 296.155L693.74 284.86H679.498L681.481 307.094L710.488 315.165H710.554L710.582 300.416Z" fill="#EBEBEB"/>
<path d="M680.623 180H697.772V187.174H687.791V194.347H697.772V201.521H680.623V180ZM701.231 180H718.38V186.238H708.376V187.486H718.357V201.833H701.203V195.283H711.184V194.036H701.203V180H701.231ZM721.838 180H738.987V186.238H728.956V187.486H738.937V201.833H721.783V195.283H731.763V194.036H721.783V180H721.838Z" fill="black"/>
<path d="M743.427 263.64L745.983 234.978H710.488V249.136H730.444L729.157 263.617H710.488V277.775H727.926L726.255 296.155L710.488 300.427V315.159L739.517 307.111L739.728 304.716L743.07 267.433L743.415 263.628L743.427 263.64Z" fill="white"/>
<path d="M875.091 414.32L865.789 518.504L823.981 530.1L782.289 518.504L773 414.32H875.091Z" fill="#E44D26"/>
<path d="M824.042 521.238L857.824 511.875L865.759 422.84H824.042V521.238Z" fill="#F16529"/>
<path d="M805.964 448.401H824.042V435.62H792L792.305 439.05L795.448 474.267H824.048V461.486H807.136L805.964 448.401ZM808.869 480.657H796.052L797.841 500.725L823.987 508.012H824.048V494.676H823.994L809.761 490.831L808.869 480.657Z" fill="#EBEBEB"/>
<path d="M782.503 386H788.997V392.415H794.935V386H801.429V405.433H794.935V398.927H788.997V405.433H782.503V386ZM809.968 392.445H804.249V386H822.181V392.445H816.462V405.433H809.974V392.445H809.968ZM825.031 386H831.806L835.974 392.83L840.137 386H846.912V405.433H840.442V395.802L835.974 402.711H835.864L831.391 395.802V405.433H825.031V386ZM850.14 386H856.634V399.006H865.789V405.427H850.159V386H850.14Z" fill="black"/>
<path d="M824 474.267H839.734L838.251 490.843L824 494.688V508.012L850.201 500.749L850.39 498.588L853.393 464.941L853.704 461.511H824V474.291V474.267ZM824 448.37V448.401H854.87L855.127 445.526L855.737 439.044L856.042 435.614H824V448.364V448.37Z" fill="white"/>
<path d="M824 709.984C822.295 709.984 820.565 709.527 819.063 708.664L803.363 699.396C801.022 698.076 802.167 697.619 802.93 697.365C806.06 696.273 806.697 696.045 810.03 694.141C810.386 693.938 810.844 694.014 811.201 694.242L823.262 701.377C823.695 701.631 824.305 701.631 824.713 701.377L871.712 674.311C872.145 674.057 872.425 673.549 872.425 673.041V618.908C872.425 618.375 872.145 617.893 871.687 617.613L824.713 590.572C824.28 590.318 823.695 590.318 823.262 590.572L776.313 617.639C775.855 617.893 775.576 618.4 775.576 618.934V673.041C775.576 673.549 775.855 674.057 776.313 674.285L789.189 681.699C796.187 685.178 800.462 681.09 800.462 676.951V623.529C800.462 622.768 801.073 622.184 801.836 622.184H807.791C808.529 622.184 809.165 622.768 809.165 623.529V676.977C809.165 686.27 804.076 691.602 795.246 691.602C792.523 691.602 790.385 691.602 784.431 688.656L772.115 681.572C769.061 679.82 767.178 676.545 767.178 673.016V618.908C767.178 615.404 769.061 612.104 772.115 610.352L819.063 583.285C822.041 581.609 825.985 581.609 828.937 583.285L875.936 610.377C878.99 612.129 880.873 615.404 880.873 618.934V673.041C880.873 676.545 878.99 679.82 875.936 681.598L828.937 708.664C827.435 709.527 825.73 709.984 824 709.984ZM861.941 656.639C861.941 646.508 855.07 643.816 840.642 641.912C826.036 639.982 824.56 638.992 824.56 635.59C824.56 632.771 825.807 629.014 836.622 629.014C846.266 629.014 849.828 631.096 851.304 637.596C851.431 638.205 851.991 638.662 852.627 638.662H858.734C859.116 638.662 859.472 638.51 859.727 638.23C859.981 637.951 860.109 637.57 860.083 637.189C859.142 625.992 851.686 620.787 836.622 620.787C823.211 620.787 815.221 626.424 815.221 635.895C815.221 646.152 823.186 648.996 836.036 650.266C851.431 651.764 852.627 654.023 852.627 657.045C852.627 662.275 848.403 664.51 838.505 664.51C826.061 664.51 823.338 661.387 822.422 655.217C822.321 654.557 821.761 654.074 821.074 654.074H814.992C814.229 654.074 813.643 654.684 813.643 655.42C813.643 663.316 817.944 672.736 838.53 672.736C853.391 672.711 861.941 666.846 861.941 656.639V656.639Z" fill="#04C652"/>
<defs>
<linearGradient id="paint0_linear_207_2" x1="239" y1="475.815" x2="239" y2="361" gradientUnits="userSpaceOnUse">
<stop stop-color="#808080" stop-opacity="0.25"/>
<stop offset="0.53514" stop-color="#808080" stop-opacity="0.12"/>
<stop offset="1" stop-color="#808080" stop-opacity="0.1"/>
</linearGradient>
</defs>
</svg>
